<svg width="853" height="150" viewBox="0 0 853 150" fill="none" xmlns="http://www.w3.org/2000/svg">
<path fill-rule="evenodd" clip-rule="evenodd" d="M214.9 147.425H270.408V146.361L252.689 138.036V90.6613H268.912C309.266 90.6613 329.972 75.085 329.972 46.9184C329.972 20.6736 309.278 4.45956 268.912 4.45956H214.9V5.52387L230.485 13.8441V138.058L214.9 146.383V147.447V147.425ZM268.489 16.0071C293.465 16.0071 306.062 24.3274 306.062 47.5863C306.062 70.8451 293.465 79.1654 268.489 79.1654H252.689V15.9899H268.489V16.0071ZM358.367 26.8869C361.027 26.8869 363.628 26.0982 365.84 24.6209C368.052 23.1435 369.776 21.0437 370.794 18.587C371.812 16.1303 372.078 13.427 371.559 10.8191C371.04 8.21124 369.758 5.81587 367.876 3.93595C365.995 2.05602 363.598 0.776031 360.988 0.2578C358.379 -0.260431 355.674 0.00637906 353.216 1.02454C350.758 2.0427 348.658 3.76646 347.18 5.97778C345.703 8.18911 344.915 10.7886 344.915 13.4477C344.908 15.215 345.251 16.9663 345.924 18.6004C346.598 20.2345 347.588 21.7192 348.839 22.9686C350.089 24.2181 351.575 25.2077 353.211 25.8802C354.846 26.5527 356.598 26.8949 358.367 26.8869ZM335.086 147.443H385.898V146.378L371.167 138.696V39.4599H370.102L336.37 47.1425V48.211L349.817 56.3159V138.678L335.086 146.361V147.425V147.443ZM386.752 147.443H441.833V146.378L422.833 138.696V93.0225C422.833 67.6308 430.516 55.0449 446.114 55.0449C448.872 54.8844 451.632 55.3154 454.209 56.309C456.787 57.3027 459.122 58.8358 461.057 60.8056H461.919V39.8951C458.386 38.8494 454.714 38.3467 451.029 38.4042C438.005 38.4042 427.317 48.4308 422.851 64.0071V39.4685H421.786L388.05 47.1511V48.2197L401.497 56.3246V138.687L386.769 146.37V147.434L386.752 147.443ZM545.162 135.068V79.1482C545.162 50.7705 530.003 38.1802 503.743 38.1802C483.678 38.1802 469.8 48.8488 466.597 66.5579L467.662 66.9887C474.711 56.9621 484.959 52.2656 499.048 52.2656C516.768 52.2656 523.812 60.3747 523.812 73.3787V80.2038L500.531 85.327C473.844 91.3033 460.393 101.752 460.393 120.745C460.393 137.601 472.348 149.976 494.125 149.976C500.774 150.071 507.299 148.171 512.856 144.52C518.413 140.869 522.746 135.635 525.295 129.496V149.123H526.407L558.643 143.578V142.513L545.162 135.068ZM501.402 135.473C498.917 135.651 496.422 135.294 494.087 134.424C491.753 133.555 489.633 132.194 487.871 130.433C486.108 128.672 484.746 126.554 483.875 124.22C483.005 121.887 482.647 119.394 482.825 116.91C482.825 104.32 489.02 98.3481 501.613 95.3664L523.816 90.2433V109.017C523.816 125.662 515.491 135.477 501.398 135.477M611.133 149.985C631.202 149.985 643.584 142.522 652.551 123.955L651.689 123.318C643.148 132.491 633.327 134.839 621.157 134.839C594.47 134.839 582.515 119.474 582.515 89.3901H652.771C652.771 56.9579 637.828 38.1802 610.288 38.1802C579.971 38.1802 561.398 62.2879 561.398 95.151C561.398 126.299 579.971 149.985 611.141 149.985M582.958 79.5704C584.454 58.6642 592.353 49.2753 607.3 49.2753C623.096 49.2753 631.012 59.9439 631.012 79.5704H582.958ZM703.601 149.985C710.533 150.193 717.344 148.141 723.006 144.139C728.667 140.136 732.871 134.4 734.983 127.799V149.132H736.052L769.784 143.586V142.522L756.337 135.05V39.0334H755.25L722.584 44.5787V45.6474L734.966 53.1144V96.6332C734.966 119.47 727.067 135.249 709.99 135.249C695.897 135.249 690.559 126.075 690.559 113.063V39.4599H689.494L655.746 47.1425V48.211L669.197 56.3159V112.003C669.197 135.701 680.299 149.985 703.571 149.985M813.078 149.985C838.057 149.985 853 138.036 853 115.846C853 101.123 842.325 90.8809 820.122 84.4824L817.134 83.6207C797.703 78.071 790.659 73.1633 790.659 63.1367C790.659 53.5324 797.919 49.2668 812.215 49.2668C819.38 49.0632 826.456 50.8992 832.616 54.5611C838.777 58.2229 843.77 63.5596 847.012 69.9489H848.076V46.0524C837.036 40.9322 825.024 38.2403 812.853 38.1587C789.572 38.1587 775.492 50.7489 775.492 68.8846C775.492 86.1671 785.74 95.9827 809.439 102.812L812.427 103.674C829.935 108.793 837.828 113.916 837.828 123.516C837.828 134.4 829.935 138.877 813.707 138.877C805.93 139.124 798.247 137.121 791.582 133.108C784.916 129.096 779.552 123.246 776.134 116.26H775.065V142.294C786.993 147.681 799.984 150.306 813.069 149.972M44.708 4.48546V5.62722L57.3055 12.3447L0 147.434H42.7723V146.292L30.179 139.575L87.4803 4.48546H44.708ZM136.969 4.48546H94.1972V5.62722L106.799 12.3447L49.4934 147.434H92.2615V146.292L79.664 139.575L136.969 4.48546ZM186.472 4.48546H143.699V5.62722L156.301 12.3447L98.9871 147.417H141.755V146.275L129.157 139.557L186.472 4.48546Z" fill="#002F30"/>
</svg>
