<svg width="195" height="99" viewBox="0 0 195 99" fill="none" xmlns="http://www.w3.org/2000/svg">
<rect width="195" height="99" fill="none"/>
<path  d="M89.8908 16.7011C90.2339 16.2687 90.5216 15.4354 90.6118 14.9706C90.7069 14.4796 90.7269 13.9587 90.7841 13.4605C90.8686 12.7264 91.0185 12.0453 91.2842 11.3534C91.8613 9.85111 93.0887 7.96287 94.2101 6.81258C95.1312 5.86766 96.0932 5.30992 97.4364 5.4212C98.6413 5.52071 99.6794 6.07295 100.359 7.08956C101.103 8.20401 101.415 9.85946 101.478 11.1909C101.537 12.4371 101.397 13.8321 100.87 14.9763C100.44 15.9126 99.8409 16.4992 99.1158 17.1951C98.5959 17.6941 98.1952 18.1136 97.9594 18.82C97.7684 19.3919 97.6067 20.5126 97.9267 21.0531C98.191 21.4997 99.3248 21.7943 99.8102 21.9871C100.775 22.3707 101.66 22.9258 102.455 23.5904C103.111 24.1382 103.736 24.8267 104.432 25.3057C104.602 25.4229 105.142 25.7441 105.384 25.7275C105.553 25.5008 105.771 24.5128 105.84 24.2605C106.034 23.5439 106.316 22.8365 106.392 22.0941C106.472 21.3118 106.347 20.4878 105.999 19.7802C105.549 18.8657 104.721 18.0425 104.483 17.0453C104.181 15.7802 104.972 14.7171 106.117 14.2504C107.219 13.8014 108.759 13.7934 109.841 14.3067C111.082 14.8957 111.647 16.0975 111.687 17.4302C111.707 18.116 111.595 18.8257 111.492 19.5028C111.359 20.372 111.234 21.2284 111.165 22.1061C110.993 24.3094 111.078 26.5259 110.997 28.7315C110.956 29.8548 110.92 31.235 110.01 32.0336C109.329 32.6308 108.357 32.8554 107.47 32.8438C106.602 32.8325 105.772 32.6076 104.931 32.42C104.149 32.2454 103.431 32.1079 102.665 31.8488C102.183 31.686 100.798 31.1313 100.334 31.25C99.9684 31.3435 99.6996 32.6996 99.6377 32.9961C99.3359 34.4436 99.1456 36.0095 99.2778 37.4876C99.4199 39.0765 99.9519 40.6184 100.469 42.1174C101.052 43.8058 101.62 45.2909 102.53 46.8428C103.507 48.5083 104.653 50.0756 105.635 51.7472C105.907 52.2105 106.168 52.6804 106.411 53.1596C107.45 55.2035 108.202 57.4707 108.697 59.7083C108.867 60.4737 109.016 61.2734 108.925 61.9822H108.068C108.17 61.4575 108.06 60.7689 107.866 59.8923C107.492 58.2046 106.808 55.8203 105.652 53.5454C104.497 51.2704 102.87 49.1051 101.796 47.2741C100.722 45.4431 100.2 43.9465 99.6646 42.3957C99.129 40.8447 98.5793 39.2396 98.4294 37.5635C98.2793 35.8873 98.5291 34.1404 98.804 32.822C99.079 31.504 99.3792 30.6148 100.123 30.4247C100.867 30.2345 102.054 30.7433 102.937 31.0419C103.82 31.3402 104.399 31.4282 105.117 31.5885C105.835 31.7489 106.691 31.9817 107.481 31.9919C108.272 32.0024 108.995 31.7904 109.448 31.3931C109.901 30.9958 110.084 30.4131 110.146 28.7004C110.208 26.9877 110.151 24.145 110.316 22.0396C110.481 19.9343 110.868 18.5662 110.835 17.4554C110.803 16.3447 110.35 15.4911 109.476 15.0764C108.602 14.6616 107.307 14.6853 106.438 15.0394C105.57 15.3933 105.127 16.0775 105.311 16.8474C105.495 17.6176 106.305 18.4737 106.763 19.4039C107.22 20.3342 107.326 21.3389 107.239 22.1813C107.152 23.0239 106.873 23.7045 106.662 24.4838C106.45 25.2633 106.306 26.1417 105.854 26.447C105.402 26.7527 104.643 26.4852 103.95 26.0078C103.256 25.5305 102.627 24.8436 101.91 24.2442C101.192 23.6446 100.385 23.1325 99.4953 22.7786C98.6056 22.4249 97.6331 22.2292 97.1937 21.4874C96.7545 20.7452 96.8488 19.457 97.1515 18.5501C97.4544 17.6432 97.9657 17.1182 98.5261 16.5804C99.0864 16.0426 99.6958 15.4923 100.097 14.6203C100.498 13.7483 100.69 12.5546 100.627 11.2315C100.565 9.90832 100.247 8.4557 99.6504 7.56287C99.0539 6.67024 98.1793 6.33757 97.366 6.2701C96.5528 6.20275 95.8008 6.40102 94.8198 7.4074C93.8388 8.41384 92.6287 10.2285 92.0794 11.6587C91.53 13.0892 91.6415 14.135 91.448 15.1329C91.2543 16.1309 90.7556 17.0808 90.3486 17.4588C89.9413 17.837 89.6257 17.6428 88.9929 17.03C88.3602 16.4171 87.41 15.3852 86.2078 14.8076C85.0055 14.2302 83.5511 14.1068 82.4502 13.7927C81.3492 13.4787 80.6019 12.9743 79.3478 11.9795C78.0936 10.9845 76.3329 9.49907 74.9308 8.21156C73.5289 6.92405 72.4857 5.83429 71.6421 4.74218C70.7986 3.65034 70.1546 2.55614 69.3154 1.90292C69.0376 1.68665 68.7385 1.51885 68.4326 1.40851V0.518187C68.9356 0.653137 69.4172 0.902635 69.8385 1.23072C70.8242 1.99789 71.5537 3.23444 72.3161 4.22149C73.259 5.44166 74.3732 6.54288 75.507 7.58409C76.9087 8.87141 78.3858 10.129 79.8772 11.3119C80.7678 12.0185 81.5774 12.6579 82.6836 12.9733C83.5503 13.2208 84.4587 13.3335 85.3353 13.5817C85.7602 13.7017 86.1783 13.8482 86.5767 14.0398C87.7977 14.6263 88.6347 15.497 89.5855 16.4179C89.6475 16.478 89.7754 16.604 89.8908 16.7011ZM68.4326 7.12822L68.4426 7.13916C69.9045 8.76732 71.6155 11.448 73.7465 13.7255C75.8774 16.0031 78.4285 17.8775 80.0551 19.2086C81.6818 20.5397 82.3844 21.3276 82.8371 22.9151C83.2899 24.5029 83.4929 26.8903 83.9671 29.1601C84.4411 31.4301 85.1867 33.5826 85.6855 35.703C86.1843 37.8238 86.4366 39.9128 86.3344 42.1053C86.2325 44.2978 85.7763 46.5936 85.3374 48.6306C84.8984 50.6676 84.4769 52.4457 83.9777 54.8803C83.4785 57.3152 82.9018 60.4064 83.9139 61.9579L83.9303 61.9822H82.9594C82.0436 59.9765 82.7288 56.7315 83.1432 54.7093C83.5723 52.6167 84.0549 50.5387 84.5048 48.4511C84.9549 46.3623 85.3842 44.2049 85.4838 42.0656C85.5811 39.975 85.3347 37.9315 84.8563 35.8983C84.338 33.6944 83.5975 31.5565 83.1332 29.3343C83.094 29.1461 83.0567 28.9574 83.0206 28.7684C82.8242 27.7346 82.6749 26.6939 82.5123 25.6543C82.3827 24.8265 82.2479 23.9547 82.018 23.1489C81.5721 21.585 80.7553 20.8821 79.5159 19.8679C78.5321 19.063 77.5244 18.29 76.5459 17.4774C75.3504 16.4846 74.1871 15.4432 73.1246 14.3077C72.061 13.1709 71.1034 11.9433 70.1647 10.703C69.5991 9.95608 69.0323 9.17568 68.4326 8.43981V7.12822ZM99.7021 61.9822C98.4746 60.8734 97.4756 59.4349 96.6959 58.0539C96.3214 57.3908 95.9945 56.7188 95.6615 56.0353C95.5362 55.7782 95.3393 55.347 95.146 55.1102C94.9675 55.2784 94.736 55.6429 94.6579 55.7752C94.1544 56.6254 93.735 57.6463 93.354 58.5597C93.0021 59.4032 92.6663 60.2538 92.3105 61.0955C92.1736 61.4189 92.0437 61.714 91.9093 61.9822H90.9414C91.1362 61.6588 91.3162 61.2598 91.5258 60.7637C92.1909 59.1903 93.1545 56.6422 93.925 55.3409C94.6955 54.0397 95.2727 53.9857 95.7359 54.4911C96.1991 54.9963 96.5484 56.0608 97.4375 57.6352C98.2297 59.0381 99.451 60.846 101.06 61.9822H99.7021Z" fill="#000"/>
<path  d="M117.902 62.8597H121.116V59.6347H117.902V62.8597Z" fill="#000"/>
<path  d="M112.703 55.7224H114.689V53.7387H112.703V55.7224Z" fill="#000"/>
<path  d="M117.902 53.2121H121.116V49.9871H117.902V53.2121Z" fill="#000"/>
<path  d="M111.275 49.9871H115.604V45.662H111.275V49.9871Z" fill="#000"/>
<path  d="M119.13 46.386H121.116V44.402H119.13V46.386Z" fill="#000"/>
<path  d="M122.232 42.7191H124.195V40.7352H122.232V42.7191Z" fill="#000"/>
<path  d="M113.953 43.2643H117.188V40.03H113.953V43.2643Z" fill="#000"/>
<path  d="M127.855 61.8905H129.819V63.8745H127.855V61.8905Z" fill="#000"/>
<path  d="M133.456 57.904H137.785V62.229H133.456V57.904Z" fill="#000"/>
<path  d="M125.646 53.2404H128.859V56.4654H125.646V53.2404Z" fill="#000"/>
<path  d="M132.809 52.1684H134.795V54.1523H132.809V52.1684Z" fill="#000"/>
<path  d="M125.579 45.8971H127.565V47.881H125.579V45.8971Z" fill="#000"/>
<path  d="M129.975 45.1167H133.211V48.351H129.975V45.1167Z" fill="#000"/>
<path  d="M104.884 82.351H95.6071L93.4249 85.8981H89.5135L98.3358 71.7991C98.6084 71.3437 98.9721 70.9799 99.3359 70.707C99.7 70.4342 100.245 70.2517 100.882 70.2517C101.61 70.2517 102.155 70.4342 102.519 70.707C102.883 70.9799 103.155 71.3437 103.429 71.7991L112.251 85.8981H108.34L107.248 84.0779L102.883 76.9836L100.882 73.7089L97.1532 79.7127H103.247L104.884 82.351Z" fill="#000"/>
<path  d="M29.649 70.6156H33.0134V85.8981H29.649V70.6156Z" fill="#000"/>
<path  d="M117.683 81.8953C117.683 81.4404 117.593 81.0762 117.593 80.6221V70.6156H120.957V80.5308C120.957 80.8944 121.049 81.3502 121.14 81.623C121.14 81.7128 121.14 81.804 121.23 81.8953H117.683ZM123.414 85.8981C122.322 85.8981 121.412 85.8068 120.594 85.6253C119.867 85.3523 119.32 85.0788 118.866 84.7147C118.411 84.2605 118.047 83.7142 117.866 83.0772V82.9874H123.686H125.142H132.781V85.8981H123.414Z" fill="#000"/>
<path  d="M74.8942 73.5264H72.4393H68.4377V70.6156H84.7163V73.5264H80.9883H78.2596H74.8942ZM74.8942 74.6185H78.2596V85.8985H74.8942V74.6185Z" fill="#000"/>
<path  d="M12.846 81.3502L19.394 70.6156H23.487L14.8472 84.5333L12.846 81.3502ZM14.1188 85.4425C14.0275 85.6253 13.8478 85.7156 13.7565 85.8066C13.3913 86.0795 12.846 86.1709 12.2094 86.1709C11.4818 86.1709 11.0277 86.0795 10.6625 85.8066C10.2999 85.5338 9.93703 85.17 9.66351 84.7147L0.932159 70.6156H5.02511L10.7541 79.8942V79.9855L12.2094 82.351L14.1188 85.4425Z" fill="#000"/>
<path  d="M185.065 75.3462L190.522 70.6156H194.798L187.339 77.3473L185.065 75.3462ZM182.427 85.8981V78.6206L173.516 70.6156H178.063L182.336 74.437L186.52 78.0755L185.792 78.7122V85.8981H182.427Z" fill="#000"/>
<path  d="M46.6786 80.7495V85.9346H43.3134V74.5631H46.6786V78.2019H55.0477C55.5927 78.2019 56.0466 78.1119 56.4118 78.1119C56.7742 78.0205 57.0481 77.9294 57.2283 77.8376C57.5026 77.6565 57.5935 77.475 57.6847 77.2013C57.7735 77.0196 57.8649 76.656 57.8649 76.2004V75.3826C57.8649 75.0182 57.7735 74.6545 57.6847 74.3821C57.5935 74.1991 57.5026 74.0177 57.2283 73.8352C57.0481 73.745 56.7742 73.6537 56.4118 73.5627C56.0466 73.5627 55.5927 73.4725 55.0477 73.4725H50.2263H46.6786H43.3134V70.652H55.2277C56.3205 70.652 57.2283 70.7434 57.9563 70.8342C58.7754 71.016 59.4116 71.1974 59.8657 71.5611C60.3223 71.9251 60.685 72.3805 60.9589 72.9256C61.1389 73.5627 61.2303 74.2905 61.2303 75.1997V76.2917C61.2303 77.2013 61.1389 77.9294 60.8676 78.4743C60.685 79.0214 60.3223 79.475 59.7747 79.8388C59.3207 80.2031 58.684 80.3859 57.8649 80.5669C57.137 80.6581 56.2292 80.7495 55.2277 80.7495H52.4988H46.6786Z" fill="#000"/>
<path  d="M56.8657 85.9344H61.2303L56.3205 80.3857H51.8623L56.8657 85.9344Z" fill="#000"/>
<path  d="M138.896 70.6156H142.26V85.8981H138.896V70.6156Z" fill="#000"/>
<path  d="M158.169 73.5264H155.714H151.712V70.6156H167.991V73.5264H164.263H161.534H158.169ZM158.169 74.6185H161.534V85.8985H158.169V74.6185Z" fill="#000"/>
<path  d="M55.9369 93.4988L54.6919 98.0266H53.488L53.033 95.9964C53.0125 95.8946 52.9053 95.3475 52.7116 94.3564H52.6153C52.4918 95.0232 52.3816 95.5715 52.2842 96.0047L51.8059 98.0266H50.602L49.39 93.4988H50.4523L50.8838 95.4851C50.9262 95.6911 50.9882 95.9964 51.0694 96.3991C51.138 96.7482 51.1903 96.9997 51.2218 97.1523H51.3099C51.3455 97.0052 51.406 96.7138 51.4913 96.2782C51.5585 95.9455 51.6135 95.6871 51.6561 95.5042L52.1042 93.4988H53.323L53.7505 95.5042C53.8919 96.149 54.0005 96.6987 54.072 97.1523H54.1724C54.1971 97.0397 54.2548 96.7497 54.3454 96.2822C54.4074 95.9675 54.4624 95.705 54.5119 95.4933L54.946 93.4988H55.9369ZM58.5576 93.3999C59.2187 93.3999 59.7356 93.6376 60.108 94.1119C60.4377 94.5338 60.6039 95.0823 60.6039 95.7586C60.6039 96.5392 60.3909 97.1483 59.9677 97.5826C59.6021 97.9551 59.1294 98.142 58.5495 98.142C57.8843 98.142 57.3663 97.9043 56.9965 97.43C56.6681 97.0107 56.5046 96.4623 56.5046 95.7833C56.5046 95.0053 56.7176 94.3964 57.1449 93.9593C57.5132 93.5868 57.9832 93.3999 58.5576 93.3999ZM58.5576 94.1488C57.8981 94.1488 57.5682 94.6878 57.5682 95.7668C57.5682 96.8513 57.8952 97.3929 58.5495 97.3929C59.2106 97.3929 59.5403 96.8513 59.5403 95.7668C59.5403 94.6878 59.2132 94.1488 58.5576 94.1488ZM64.0423 93.3999L63.9737 94.3745C63.3964 94.3745 62.969 94.7564 62.6887 95.522V98.0266H61.6662V93.4988H62.6405V94.6121C62.9334 93.8038 63.4005 93.3999 64.0423 93.3999ZM68.7176 93.4988L67.2073 95.1909L68.8014 98.0266H67.6622L66.5434 95.8919L65.9224 96.5764V98.0266H64.8999V91.5111H65.9224V95.4768L67.5536 93.4988H68.7176ZM75.2153 94.553L74.2326 94.8349C74.12 94.3509 73.852 94.1091 73.4286 94.1091C73.1978 94.1091 73.0164 94.1614 72.8845 94.2685C72.7745 94.3538 72.7196 94.4624 72.7196 94.593C72.7196 94.7841 72.7801 94.9271 72.901 95.0205C73.0136 95.1071 73.2211 95.1896 73.5249 95.2705L73.9028 95.371C74.4511 95.5152 74.8277 95.7021 75.0339 95.9303C75.2166 96.1324 75.3087 96.4047 75.3087 96.7481C75.3087 97.1991 75.1355 97.5483 74.7892 97.7957C74.4689 98.0266 74.032 98.142 73.4768 98.142C72.4914 98.142 71.8621 97.7654 71.5885 97.0122L72.5547 96.6741C72.6989 97.1798 73.0151 97.4329 73.5 97.4329C74.0512 97.4329 74.326 97.2389 74.326 96.8513C74.326 96.6575 74.2616 96.5172 74.1323 96.428C74.0224 96.3552 73.7956 96.2699 73.4521 96.1709L73.0742 96.0652C72.5506 95.9262 72.1918 95.7434 71.9994 95.5181C71.829 95.3187 71.7452 95.0425 71.7452 94.6878C71.7452 94.2837 71.9102 93.9619 72.2399 93.7256C72.5438 93.5083 72.945 93.3999 73.4438 93.3999C74.3645 93.3999 74.9554 93.7847 75.2153 94.553ZM77.337 93.4988V94.2905C77.7232 93.6968 78.1988 93.3999 78.7622 93.3999C79.0768 93.3999 79.3352 93.4905 79.54 93.6719C79.709 93.8274 79.8216 94.0308 79.8781 94.2823C80.267 93.6939 80.7452 93.3999 81.3115 93.3999C81.7114 93.3999 82.0218 93.5345 82.2445 93.8025C82.4466 94.0418 82.5468 94.3606 82.5468 94.7606V98.0266H81.5078V95.0506C81.5078 94.5435 81.299 94.2891 80.88 94.2891C80.6915 94.2891 80.506 94.3703 80.3205 94.531C80.1626 94.6713 80.0333 94.8472 79.9344 95.0589V98.0266H78.9119V95.0506C78.9119 94.5435 78.7251 94.2891 78.3513 94.2891C78.1616 94.2891 77.9706 94.3689 77.7795 94.527C77.6133 94.6671 77.4773 94.8445 77.3686 95.0589V98.0266H76.3461V93.4988H77.337ZM83.7273 94.6396C83.9611 93.8081 84.5849 93.3916 85.599 93.3916C86.77 93.3916 87.3541 93.892 87.3541 94.894V96.6892C87.3541 97.1277 87.3787 97.573 87.4269 98.0266H86.4732C86.4428 97.8574 86.4182 97.6596 86.3962 97.4329C86.0718 97.9001 85.5964 98.1338 84.971 98.1338C84.5229 98.1338 84.1712 97.9962 83.9155 97.7229C83.6902 97.4808 83.5776 97.1703 83.5776 96.7881C83.5776 95.9827 84.071 95.4836 85.055 95.294C85.4203 95.2239 85.8519 95.1812 86.3481 95.1647V94.9077C86.3481 94.608 86.2766 94.395 86.1351 94.2685C86.0113 94.1614 85.8202 94.1091 85.5635 94.1091C85.3269 94.1091 85.1304 94.1847 84.9752 94.3373C84.8323 94.4776 84.7402 94.6645 84.6975 94.9008L83.7273 94.6396ZM86.3481 95.8052C86.0018 95.8136 85.6554 95.8576 85.3091 95.9385C84.8158 96.0568 84.5685 96.3125 84.5685 96.7084C84.5685 97.1648 84.8103 97.3929 85.2926 97.3929C85.7339 97.3929 86.0856 97.1442 86.3481 96.6478V95.8052ZM91.0342 93.3999L90.9656 94.3745C90.3884 94.3745 89.961 94.7564 89.6806 95.522V98.0266H88.6582V93.4988H89.6325V94.6121C89.9254 93.8038 90.3925 93.3999 91.0342 93.3999ZM93.1287 92.0225V93.4988H94.1428V94.2562H93.1287V96.74C93.1287 97.1758 93.3142 97.3929 93.6879 97.3929C93.8887 97.3929 94.0646 97.375 94.2158 97.3407L94.1745 98.0815C93.9465 98.1158 93.677 98.1338 93.3666 98.1338C92.9075 98.1338 92.5762 98.0239 92.3755 97.8038C92.1956 97.6073 92.1062 97.3159 92.1062 96.9298V94.2562H91.4286V93.4988H92.1062V92.2563L93.1287 92.0225ZM98.825 95.9895H95.7644C95.7699 96.4609 95.88 96.8238 96.0956 97.0754C96.2909 97.3035 96.5602 97.4177 96.9038 97.4177C97.3903 97.4177 97.7091 97.1303 97.8588 96.5586L98.8002 96.8321C98.5157 97.7048 97.8808 98.142 96.8928 98.142C96.17 98.142 95.6215 97.9083 95.2451 97.441C94.9151 97.0342 94.7502 96.4829 94.7502 95.7916C94.7502 95.0066 94.9646 94.3977 95.3948 93.9635C95.7617 93.5881 96.2318 93.3999 96.8033 93.3999C97.4424 93.3999 97.9467 93.6321 98.3179 94.0968C98.656 94.5187 98.825 95.0781 98.825 95.7765V95.9895ZM97.8107 95.305C97.7599 94.5132 97.4288 94.1159 96.8199 94.1159C96.4901 94.1159 96.2331 94.237 96.0504 94.4789C95.895 94.6864 95.8057 94.9614 95.7809 95.305H97.8107ZM102.247 93.3999L102.178 94.3745C101.601 94.3745 101.174 94.7564 100.893 95.522V98.0266H99.8708V93.4988H100.845V94.6121C101.138 93.8038 101.605 93.3999 102.247 93.3999ZM106.463 93.4988V94.2905C106.661 93.9965 106.898 93.7695 107.171 93.613C107.421 93.4713 107.679 93.3999 107.949 93.3999C108.36 93.3999 108.683 93.5345 108.919 93.8025C109.133 94.0444 109.241 94.3635 109.241 94.7606V98.0266H108.178V95.0506C108.178 94.5435 107.969 94.2891 107.55 94.2891C107.356 94.2891 107.159 94.3675 106.954 94.5229C106.779 94.6603 106.627 94.839 106.495 95.0589V98.0266H105.456V93.4988H106.463ZM112.333 93.3999C112.994 93.3999 113.511 93.6376 113.883 94.1119C114.213 94.5338 114.379 95.0823 114.379 95.7586C114.379 96.5392 114.166 97.1483 113.743 97.5826C113.377 97.9551 112.905 98.142 112.325 98.142C111.659 98.142 111.141 97.9043 110.772 97.43C110.443 97.0107 110.28 96.4623 110.28 95.7833C110.28 95.0053 110.493 94.3964 110.92 93.9593C111.288 93.5868 111.758 93.3999 112.333 93.3999ZM112.333 94.1488C111.673 94.1488 111.343 94.6878 111.343 95.7668C111.343 96.8513 111.67 97.3929 112.325 97.3929C112.986 97.3929 113.315 96.8513 113.315 95.7668C113.315 94.6878 112.988 94.1488 112.333 94.1488ZM116.678 92.0225V93.4988H117.692V94.2562H116.678V96.74C116.678 97.1758 116.864 97.3929 117.237 97.3929C117.438 97.3929 117.614 97.375 117.765 97.3407L117.724 98.0815C117.496 98.1158 117.226 98.1338 116.916 98.1338C116.457 98.1338 116.126 98.0239 115.925 97.8038C115.745 97.6073 115.656 97.3159 115.656 96.9298V94.2562H114.978V93.4988H115.656V92.2563L116.678 92.0225ZM121.964 91.5111V94.2658C122.369 93.6939 122.854 93.4081 123.418 93.4081C123.828 93.4081 124.151 93.5413 124.388 93.8067C124.602 94.0486 124.709 94.3661 124.709 94.7606V98.0266H123.647V95.0589C123.647 94.5517 123.438 94.2975 123.019 94.2975C122.825 94.2975 122.627 94.3784 122.423 94.5394C122.248 94.6768 122.095 94.8556 121.964 95.0755V98.0266H120.925V91.5111H121.964ZM125.89 94.6396C126.124 93.8081 126.748 93.3916 127.762 93.3916C128.933 93.3916 129.517 93.892 129.517 94.894V96.6892C129.517 97.1277 129.541 97.573 129.589 98.0266H128.636C128.605 97.8574 128.581 97.6596 128.559 97.4329C128.234 97.9001 127.759 98.1338 127.134 98.1338C126.686 98.1338 126.334 97.9962 126.078 97.7229C125.853 97.4808 125.74 97.1703 125.74 96.7881C125.74 95.9827 126.234 95.4836 127.218 95.294C127.583 95.2239 128.015 95.1812 128.511 95.1647V94.9077C128.511 94.608 128.439 94.395 128.298 94.2685C128.174 94.1614 127.983 94.1091 127.726 94.1091C127.49 94.1091 127.293 94.1847 127.138 94.3373C126.995 94.4776 126.903 94.6645 126.86 94.9008L125.89 94.6396ZM128.511 95.8052C128.164 95.8136 127.818 95.8576 127.472 95.9385C126.978 96.0568 126.731 96.3125 126.731 96.7084C126.731 97.1648 126.973 97.3929 127.455 97.3929C127.896 97.3929 128.248 97.1442 128.511 96.6478V95.8052ZM133.197 93.3999L133.128 94.3745C132.551 94.3745 132.124 94.7564 131.843 95.522V98.0266H130.821V93.4988H131.795V94.6121C132.088 93.8038 132.555 93.3999 133.197 93.3999ZM137.779 91.5111V98.0266H136.781V97.3997C136.488 97.8946 136.065 98.142 135.513 98.142C134.97 98.142 134.54 97.9083 134.219 97.441C133.928 97.0094 133.781 96.4431 133.781 95.7435C133.781 94.949 133.972 94.34 134.353 93.9195C134.659 93.5785 135.045 93.4081 135.513 93.4081C136.054 93.4081 136.466 93.6473 136.748 94.1256V91.5111H137.779ZM136.748 94.9943C136.539 94.4761 136.226 94.2177 135.811 94.2177C135.51 94.2177 135.272 94.358 135.098 94.6396C134.929 94.9105 134.845 95.2844 134.845 95.7586C134.845 96.3139 134.953 96.7304 135.17 97.0067C135.342 97.2237 135.563 97.3324 135.834 97.3324C136.226 97.3324 136.531 97.0809 136.748 96.5764V94.9943ZM142.917 95.9895H139.857C139.862 96.4609 139.972 96.8238 140.188 97.0754C140.383 97.3035 140.652 97.4177 140.996 97.4177C141.482 97.4177 141.801 97.1303 141.951 96.5586L142.892 96.8321C142.608 97.7048 141.973 98.142 140.985 98.142C140.262 98.142 139.714 97.9083 139.337 97.441C139.007 97.0342 138.842 96.4829 138.842 95.7916C138.842 95.0066 139.057 94.3977 139.487 93.9635C139.854 93.5881 140.324 93.3999 140.896 93.3999C141.535 93.3999 142.039 93.6321 142.41 94.0968C142.748 94.5187 142.917 95.0781 142.917 95.7765V95.9895ZM141.903 95.305C141.852 94.5132 141.521 94.1159 140.912 94.1159C140.582 94.1159 140.325 94.237 140.143 94.4789C139.987 94.6864 139.898 94.9614 139.873 95.305H141.903ZM146.339 93.3999L146.27 94.3745C145.693 94.3745 145.266 94.7564 144.985 95.522V98.0266H143.963V93.4988H144.937V94.6121C145.23 93.8038 145.697 93.3999 146.339 93.3999Z" fill="#000"/>
</g>
<defs>
<clipPath  id="clip0_0_1">
<rect width="195" height="99" fill="white"/>
</clipPath >
</defs>
</svg>
